<svg xmlns="http://www.w3.org/2000/svg" viewBox="0 0 64 64"><defs><style>.cls-1{fill:red;}</style></defs><g id="Layer_30" data-name="Layer 30"><path class="cls-1" d="M23,52H11V40H23ZM13,50h8V42H13Z"/><path d="M46.9,10a5,5,0,0,0-9.8,0H27.9a5,5,0,0,0-9.8,0H11V52H53V10ZM42,8a3,3,0,1,1-3,3A3,3,0,0,1,42,8ZM23,8a3,3,0,1,1-3,3A3,3,0,0,1,23,8Zm-4.9,4a5,5,0,0,0,9.8,0h9.2a5,5,0,0,0,9.8,0H51v6H13V12ZM13,43.41,19.59,50H13ZM22.41,50,13,40.59V20H51V50Z"/><polygon points="35.29 27.29 32 30.59 28.71 27.29 27.29 28.71 30.59 32 27.29 35.29 28.71 36.71 32 33.41 35.29 36.71 36.71 35.29 33.41 32 36.71 28.71 35.29 27.29"/></g></svg>